<?xml version="1.0" encoding="utf-8"?>
<!-- Uploaded to: SVG Repo, www.svgrepo.com, Generator: SVG Repo Mixer Tools -->
<svg fill="#000000" version="1.1" id="Layer_1" xmlns="http://www.w3.org/2000/svg" xmlns:xlink="http://www.w3.org/1999/xlink" 
	 width="800px" height="800px" viewBox="0 0 256 241" enable-background="new 0 0 256 241" xml:space="preserve">
<path d="M2,2.375v236.25h240.188H254v-11.813V2.375H2z M131.938,14.188h51.188v102.747l-12.534,14.623
	c0,0-20.587-4.061-38.654-7.683V14.188z M72.875,117.589c4.811,2.189,9.56,4.106,11.142,4.696
	c-5.777,3.888-9.905,10.028-11.142,17.161V117.589z M65,218.973c-1.419-0.545-2.947-0.847-4.531-0.847h-2.418l-1.286-12.176
	L65,200.729V218.973z M65,103.446c-0.77-0.523-1.523-1.057-2.247-1.61C52.03,93.647,46.567,83.214,46.51,70.826
	C46.579,60.326,54.704,51.714,65,50.845V103.446z M65,42.163c-13.134,0.809-24.314,10.855-26.737,23.929
	c-2.694,14.547,4.519,34.987,26.516,47.469c0.07,0.04,0.149,0.081,0.221,0.122v70.576l-17.225,11.088
	c-1.931,1.244-2.942,3.516-2.571,5.784l4.191,25.652l-35.583,0.029V14.188H65V42.163z M72.875,195.735l20.604-13.065
	c-6.039-4.341-11.536-9.285-16.124-14.477l-0.752,6.997c-0.116,1.088-0.719,2.064-1.639,2.656l-2.089,1.345v-30.738
	c0.56,3.28,1.714,6.355,3.432,9.057c7.896,12.418,24.281,23.086,24.281,23.086c0.009,0.006,0.018,0.013,0.027,0.019l-13.706,37.513
	l8.687,8.685h-22.72V195.735z M124.063,226.813h-8.287c-1.786-5.06-6.646-8.687-12.021-8.687h-3.861l20.054-34.76
	c0.989-1.714,1.031-3.814,0.11-5.567l-9.182-17.488c0,0,4.631,5.19,13.187,9.793V226.813z M124.063,122.29
	c-8.218-1.659-15.003-3.053-17.646-3.652c-13.127-2.978-24.414-6.241-33.542-10.683V51.729c8.131,2.613,14.034,10.241,14.034,19.229
	c0,2.391,1.937,4.328,4.328,4.328s4.328-1.937,4.328-4.328c-0.001-13.793-9.733-25.351-22.691-28.184V14.188h51.188V122.29z
	 M131.938,173.624c3.976,1.438,8.468,2.576,13.451,3.11l-9.424,41.391l5.792,8.687h-9.819V173.624z M191,226.813v-6.702l5.585,6.702
	H191z M242.188,226.813h-31.197c-1.852-3.645-5.157-6.597-9.042-7.867l-2.502-0.818l-9.378-32.464l-2.036-14.152
	c-4.446,3.096-9.297,5.642-14.462,7.532l1.35,6.62l8.206,18.463v22.685h-26.997c-1.874-3.666-4.983-6.751-8.745-8.422l-0.596-0.265
	l12.986-32.464l10.791-11.682c13.565-4.693,24.833-14.299,31.641-26.211l9.189-3.676c1.576-0.63,2.795-1.923,3.331-3.533l1.643-4.93
	c0.226-0.68-0.084-1.425-0.726-1.746l-4.651-2.327v-4.328l2.886-4.328l-21.06-9.36c-0.589-0.262-1.201-0.417-1.816-0.514V14.188
	h51.188V226.813z"/>
</svg>